<svg id="Ebene_1" data-name="Ebene 1" xmlns="http://www.w3.org/2000/svg" viewBox="0 0 100 100"><title>rail_straight</title><path d="M60.07,0V7.39c1.82,0,3.52-.3,5.16.12.82.21,1.52,1.73,2.28,2.66-.75.8-1.45,2.11-2.24,2.29a23.15,23.15,0,0,1-5,.11V27.33a23.34,23.34,0,0,1,5,.11c.79.17,1.5,1.51,2.25,2.32-.76.94-1.47,2.47-2.29,2.69-1.58.44-3.23.13-5,.13V48.2a15.53,15.53,0,0,1,4.3.5c.76.3,1.36,1.78,2,2.72-.71.87-1.37,2.24-2.16,2.49-1.32.41-2.72.11-4.19.11V66.78a23.27,23.27,0,0,1,5.16.12c.76.17,1.43,1.58,2.15,2.43-.7.87-1.36,2.32-2.11,2.5a23.53,23.53,0,0,1-5.19.12V86.73a23,23,0,0,1,5.12.12c.78.17,1.46,1.57,2.18,2.41-.7.88-1.35,2.34-2.1,2.52a24.66,24.66,0,0,1-5.34.12v8.32H55.16c.07-2.65.14-5.31.21-8h-11v8H39.91c-.09-2.6-.17-5.2-.27-8.35-1.49,0-2.89.29-4.21-.11-.71-.22-1.29-1.64-1.92-2.52.65-.83,1.26-2.16,2-2.37a14.33,14.33,0,0,1,4.09-.11V71.92c-1.51,0-2.84.29-4.1-.11-.72-.23-1.31-1.57-2-2.41.64-.86,1.23-2.26,1.94-2.48a13.86,13.86,0,0,1,4.13-.12V52.67c-1.65,0-3.14.31-4.56-.13-.73-.23-1.33-1.78-2-2.74.67-.77,1.3-2,2-2.2a19.67,19.67,0,0,1,4.54-.11v-15c-1.54,0-3,.3-4.29-.13-.68-.22-1.22-1.75-1.82-2.7.61-.75,1.18-1.95,1.85-2.17a20.14,20.14,0,0,1,4.26-.55V12.55c-1.48,0-2.81.28-4.06-.11-.74-.22-1.37-1.52-2-2.34.7-.89,1.33-2.32,2.1-2.57,1.3-.43,2.68-.12,4-.12.1-3,.17-5.2.25-7.41h4.42V7.12H55.39c-.08-2.53-.16-4.83-.23-7.12ZM44.55,32.85V47.77H55.22V32.85ZM55.19,27V13H44.56V27Zm0,59.5V72.26H44.58V86.48Zm-10.7-20H55.22V53.67H44.51Z"/></svg>